<svg width="512" height="512" viewBox="0 0 512 512" fill="none" xmlns="http://www.w3.org/2000/svg">
<circle cx="256" cy="256" r="256" fill="#F8FDFF"/>
<path d="M231.919 100.67C195.346 105.282 163.936 121.022 138.182 147.829C130.929 155.392 125.827 161.787 119.926 170.825C91.59 214.049 86.5498 266.435 106.035 315.439C108.186 320.85 109.6 323.617 110.215 323.617C110.706 323.617 113.595 322.756 116.546 321.772C119.558 320.727 123.676 319.743 125.766 319.559C127.856 319.435 130.99 319.006 132.65 318.698C134.371 318.39 136.891 318.145 138.244 318.145L140.764 318.083L141.132 313.902C141.317 311.627 141.379 309.66 141.256 309.536C141.132 309.413 140.703 311.012 140.272 313.103C139.411 317.222 138.428 318.267 138.92 314.516L139.227 312.181L134.74 312.365C127.425 312.611 123.983 312.918 123.123 313.471C122.569 313.779 122.446 313.718 122.754 313.287C123 312.856 122.877 312.55 122.569 312.55C122.201 312.55 121.893 312.856 121.893 313.164C121.893 313.532 121.217 313.348 120.357 312.795C119.558 312.303 118.574 311.995 118.205 312.242C117.898 312.426 117.406 312.181 117.222 311.689C116.546 309.844 115.624 310.643 116.054 312.672C116.423 314.701 116.423 314.701 115.624 313.164C115.132 312.303 113.78 308.86 112.489 305.478C105.605 286.663 102.961 270.124 103.699 249.219C104.375 227.761 109.108 209.622 118.943 190.193C132.097 164.431 151.828 143.341 176.722 128.585C210.714 108.479 252.941 103.252 291.542 114.32C316.068 121.391 338.012 134.057 356.636 151.826L361.246 156.192L344.958 156.56C327.624 156.991 315.453 157.975 303.467 160.004C299.349 160.741 293.939 161.479 291.419 161.664C284.72 162.279 281.892 160.803 272.734 152.133C267.14 146.784 264.558 144.817 260.993 143.095C254.846 140.144 246.671 138.545 234.378 137.93C227.617 137.623 223.314 137.131 221.531 136.455C218.335 135.286 214.34 135.163 213.971 136.209C213.295 137.992 214.954 141.251 218.274 144.755C221.163 147.829 223.13 149.121 229.461 152.257C238.067 156.56 239.357 157.852 240.586 163.631C241.509 168.12 241.017 173.469 239.296 176.912C237.39 180.909 233.579 184.475 225.159 190.255C203.521 205.011 185.204 222.903 173.034 241.103C159.818 260.778 152.749 276.335 148.693 294.719C146.787 303.265 145.374 311.75 145.128 315.869L144.944 318.882L148.939 320.235C151.152 320.972 154.348 322.264 156.008 323.125C157.729 323.986 161.232 325.277 163.875 326.015C172.85 328.474 177.275 330.995 184.221 337.635C189.2 342.37 190.982 343.538 195.162 344.891C197.129 345.444 198.604 346.12 198.42 346.243C198.235 346.428 198.973 347.043 199.956 347.657C201.001 348.334 201.8 349.072 201.8 349.441C201.8 349.81 201.309 349.748 200.571 349.318C199.895 348.887 199.342 348.272 199.342 348.026C199.342 347.719 198.911 347.904 198.42 348.457C197.743 349.133 197.006 349.194 195.715 348.826C194.302 348.457 193.933 348.518 194.178 349.133C194.425 349.748 193.502 349.871 189.999 349.686C187.54 349.563 184.897 349.318 184.159 349.072C183.299 348.826 182.746 348.949 182.746 349.379C182.746 349.748 182.438 350.055 182.07 350.055C181.762 350.055 181.578 349.81 181.762 349.502C181.946 349.194 181.393 348.764 180.41 348.518C179.488 348.334 178.259 347.657 177.644 347.104C176.845 346.367 176.415 346.304 175.861 346.859C174.878 347.842 174.14 347.78 174.14 346.673C174.14 346.182 173.71 345.751 173.157 345.751C172.666 345.751 172.419 345.997 172.603 346.367C173.342 347.534 172.481 346.981 165.167 341.448C154.409 333.208 146.05 329.581 133.756 327.613C126.872 326.444 121.217 327.121 115.132 329.765C109.723 332.102 107.51 332.655 98.6587 333.7C91.0369 334.684 87.4102 335.422 84.2755 336.651C83.3535 336.959 82.0627 337.082 81.5094 336.836C80.8948 336.529 79.9113 336.406 79.358 336.467C78.3746 336.59 78.3746 336.406 79.2966 333.639C79.8498 332.04 80.5874 330.503 80.9562 330.195C81.325 329.95 81.0792 329.826 80.403 329.888C79.7269 330.011 79.0507 329.765 78.8664 329.458C78.4976 328.72 82.247 327.428 86.8571 326.691C89.9919 326.199 89.869 326.138 85.013 326.322C80.5259 326.444 79.0507 326.752 75.4857 328.474C71.5517 330.257 67.3105 333.147 63.6225 336.406C56.2464 342.923 46.3502 346.367 32.766 347.165L30 347.288L32.4587 348.396C37.0072 350.486 48.9934 354.421 56.1235 356.203C67.0647 358.909 71.6747 359.524 81.325 359.463C91.8359 359.401 95.5853 358.602 108.309 353.437C113.226 351.47 118.328 349.871 120.664 349.502L124.659 348.949L128.347 353.068C130.376 355.282 134.924 360.139 138.489 363.828C163.507 389.652 194.609 405.269 231.305 410.372C240.094 411.602 262.407 411.418 271.566 410.065C291.665 407.053 311.273 400.597 326.825 391.743C342.438 382.888 353.931 373.789 368.007 359.155L377.597 349.194L381.96 348.949C388.046 348.58 392.718 349.686 401.63 353.499C413.739 358.724 417.243 359.463 429.228 359.463C440.047 359.463 446.071 358.663 456.889 355.835C463.589 354.113 480.247 348.396 481.168 347.534C481.476 347.227 480 346.981 477.48 346.981C465.248 346.92 457.012 343.661 446.256 334.623C443.981 332.716 440.415 330.257 438.387 329.15C434.33 326.999 428.675 325.768 427.692 326.814C427.262 327.305 427.323 327.367 427.876 327.06C428.983 326.383 430.212 327.305 429.167 328.044C428.552 328.412 428.737 328.474 429.782 328.228C430.643 327.982 431.072 328.044 430.888 328.351C430.643 328.72 431.072 329.52 431.688 330.257C432.364 330.995 432.917 332.41 432.917 333.392C432.917 334.93 432.609 335.36 431.257 335.668C430.274 335.914 429.228 336.344 428.86 336.59C428.491 336.898 426.339 336.59 423.942 335.914C421.607 335.237 416.198 334.192 411.895 333.516C407.162 332.778 401.015 331.302 396.221 329.704C389.029 327.305 387.861 327.06 382.514 327.121C369.851 327.244 355.53 333.455 340.102 345.383C336.475 348.272 331.742 351.286 329.283 352.331C324.428 354.482 321.292 355.097 321.477 353.868C321.723 352.945 320.924 352.884 319.94 353.868C318.711 355.097 318.342 353.806 319.51 352.515C320.124 351.839 320.494 351.1 320.247 350.916C319.633 350.239 323.444 344.767 326.517 341.878C330.39 338.25 335.245 335.176 341.207 332.471C347.6 329.581 351.718 327.491 357.804 323.924C363.95 320.358 370.159 318.698 377.719 318.698C382.883 318.698 383.804 318.39 384.112 316.546C384.173 316.177 384.42 315.439 384.665 314.824C384.911 314.209 384.849 313.779 384.419 313.779C384.051 313.779 383.804 313.963 383.804 314.209C383.989 315.439 383.681 315.685 382.883 315.071C382.268 314.516 381.96 314.579 381.715 315.255C381.468 315.869 381.653 316.054 382.268 315.808C382.821 315.624 383.128 315.869 383.128 316.608C383.128 317.468 383.005 317.591 382.575 316.976C382.329 316.484 381.838 316.116 381.531 316.054C381.223 315.992 381.039 315.624 381.039 315.193C381.1 314.763 380.547 314.271 379.81 314.024C379.133 313.779 378.334 313.287 378.089 312.918C377.781 312.487 377.597 312.611 377.597 313.226C377.597 314.087 377.166 314.148 374.4 313.656C372.617 313.41 369.052 313.164 366.533 313.164C355.96 313.164 354.485 313.103 353.501 312.795C352.886 312.611 352.087 312.672 351.657 312.979C351.227 313.226 344.22 313.471 336.106 313.471C310.781 313.471 293.386 313.902 293.755 314.455C293.939 314.763 293.755 315.008 293.448 315.008C293.079 315.008 292.771 314.763 292.771 314.516C292.771 314.209 292.218 313.287 291.481 312.487L290.252 311.074L288.408 313.042C286.687 314.885 285.396 315.562 285.396 314.64C285.396 314.394 286.011 313.718 286.748 313.103C287.424 312.426 287.916 311.811 287.793 311.689C287.609 311.504 285.888 312.979 283.859 314.885C275.745 322.633 270.643 326.322 261.485 330.871C253.678 334.807 249.807 334.131 248.761 328.781C248.085 325.154 248.823 323.186 253.372 316.361C255.4 313.287 255.461 312.979 254.478 312.242C253.925 311.811 253.433 311.197 253.433 310.766C253.433 310.397 253.125 310.09 252.757 310.09C252.388 310.09 252.265 310.643 252.511 311.319C252.757 311.995 252.634 312.55 252.265 312.55C251.896 312.55 251.589 312.979 251.589 313.532C251.589 314.332 251.404 314.394 250.728 313.84C250.175 313.41 249.684 313.348 249.499 313.718C249.315 314.024 249.499 314.394 249.868 314.579C250.298 314.701 250.483 315.008 250.298 315.255C250.052 315.5 249.437 315.193 248.884 314.64C247.9 313.718 247.716 313.718 246.487 315.071C245.75 315.869 245.196 316.73 245.319 317.038C245.381 317.345 245.196 317.406 244.889 317.161C244.52 316.976 243.229 317.96 241.938 319.435C240.648 320.85 239.172 322.448 238.681 323.002C238.189 323.555 236.407 325.646 234.747 327.613C233.026 329.642 231.121 331.855 230.506 332.471C229.153 333.823 226.388 339.419 226.388 340.832C226.388 341.386 226.08 342.124 225.649 342.554C224.543 343.661 226.572 343.477 234.808 341.754C248.577 338.927 248.7 338.927 263.882 344.275C272.119 347.227 272.242 347.227 280.171 347.288C284.596 347.35 289.576 347.412 291.235 347.534L294.308 347.719L291.85 348.518L289.392 349.318L291.542 349.379C294.124 349.441 303.467 347.473 307.524 346.059C312.134 344.399 316.682 341.57 322.768 336.406C329.345 330.871 334.569 328.105 339.364 327.675C342.867 327.367 343.543 328.044 340.901 329.089C335.368 331.241 324.55 339.848 320.985 344.83C319.079 347.473 313.364 351.9 311.827 351.9C311.396 351.9 310.228 352.331 309.184 352.823C304.758 354.79 298.919 356.695 298.611 356.203C298.304 355.712 300.947 353.007 304.45 350.117C306.786 348.21 305.127 348.58 299.411 351.286C288.653 356.327 280.11 357.742 256.199 358.418C236.96 358.971 226.325 357.864 216.982 354.36C212.927 352.823 200.632 346.796 200.571 346.304C200.571 346.12 202.845 345.936 205.673 345.997C212.496 345.997 219.257 345.32 219.503 344.583C219.626 344.275 220.118 344.153 220.61 344.338C221.102 344.522 221.654 344.153 221.9 343.538C222.146 342.923 222.023 342.37 221.593 342.185C221.163 342.062 220.855 341.693 220.855 341.386C220.855 341.017 221.163 340.956 221.47 341.14C222.023 341.509 223.13 339.419 223.622 337.082C224.052 335.053 229.092 325.031 231.427 321.588C232.779 319.62 233.702 317.837 233.456 317.591C233.271 317.345 232.779 317.591 232.473 318.083C231.919 318.821 231.858 318.821 232.166 317.898C232.35 317.284 232.534 316.484 232.534 316.116C232.534 315.746 232.903 315.808 233.456 316.238C234.747 317.345 235.239 316.608 234.378 314.885C233.763 313.595 233.763 313.595 234.563 314.579C235.116 315.193 235.607 315.5 235.792 315.193C237.39 312.55 239.296 308.86 239.049 308.86C238.865 308.86 238.004 309.598 237.083 310.52C235.484 312.242 235.484 312.242 236.284 310.705C237.083 309.106 241.754 302.712 242.123 302.712C242.246 302.712 242.123 303.204 241.938 303.757C241.693 304.433 242.492 303.941 243.721 302.773C245.074 301.482 245.811 300.314 245.565 299.699C245.319 299.083 245.503 298.899 246.242 299.207C246.979 299.453 247.102 299.33 246.856 298.592C246.548 297.854 246.671 297.732 247.286 298.1C247.9 298.469 248.024 298.285 247.778 297.301C247.532 296.379 247.655 295.948 248.27 295.948C248.761 295.948 249.131 296.194 249.131 296.563C249.131 296.87 249.376 297.178 249.684 297.178C249.991 297.178 250.236 296.501 250.236 295.64C250.236 294.166 252.02 292.013 253.617 291.46C254.17 291.276 254.109 290.906 253.433 290.045C252.511 288.939 252.572 288.939 254.354 290.045C255.646 290.906 255.953 290.968 255.4 290.292C254.417 289.061 255.83 287.71 257.428 288.324C258.35 288.692 258.411 288.508 258.043 287.279C257.797 286.479 257.306 285.618 256.998 285.434C256.506 285.126 256.875 284.696 264.989 277.564L269.475 273.629L270.706 274.982L271.996 276.335L274.271 274.306C275.561 273.198 276.483 272.092 276.36 271.784C275.868 270.985 275.008 271.354 274.639 272.584C274.455 273.26 273.901 273.814 273.409 273.814C272.979 273.814 272.488 274.121 272.364 274.428C272.242 274.859 271.688 274.735 270.951 274.182C270.275 273.69 269.845 273.198 270.029 273.075C273.963 269.816 281.462 263.976 286.011 260.655C289.206 258.319 292.834 255.675 294.002 254.814C300.824 249.772 315.022 241.287 325.042 236.184C337.213 230.035 345.756 226.347 346.248 227.084C346.556 227.514 348.338 227.023 351.534 225.608C354.178 224.44 357.496 223.087 358.849 222.473C360.816 221.674 361.124 221.366 360.385 220.874C359.709 220.444 359.956 220.382 361.308 220.69C362.721 220.936 362.906 220.874 362.229 220.382C361.492 219.891 361.738 219.706 363.336 219.706C364.442 219.706 365.242 219.46 365.057 219.152C364.811 218.845 365.181 218.723 365.795 218.907C367.086 219.215 375.138 216.139 375.138 215.341C375.138 215.033 375.814 214.788 376.674 214.788C377.535 214.788 378.211 214.602 378.211 214.296C378.211 213.926 379.932 213.188 383.436 212.082C383.804 211.959 384.911 211.59 385.894 211.159C386.94 210.791 388.599 210.175 389.582 209.807C390.627 209.438 391.979 208.885 392.656 208.638C395.053 207.655 398.188 206.487 398.496 206.425C398.864 206.364 398.372 206.548 412.018 201.076C417.919 198.678 424.803 195.665 427.323 194.374C432.609 191.792 433.47 191.976 432.364 195.665C431.38 199.047 426.401 204.335 420.377 208.27C417.672 210.114 399.786 219.46 380.67 229.114C361.553 238.705 343.298 247.928 340.102 249.65C336.905 251.371 324.857 257.52 313.364 263.36C261.363 289.8 249.991 297.977 234.439 319.804C232.657 322.325 231.305 324.478 231.489 324.601C231.613 324.723 234.316 321.895 237.513 318.267C244.09 310.766 250.974 304.002 253.186 302.835C254.662 302.096 254.909 302.159 256.814 304.249C260.686 308.307 260.317 312.242 255.277 320.235C252.081 325.338 251.528 327.736 253.186 329.396C253.678 329.95 254.232 330.38 254.417 330.38C254.601 330.38 257.49 328.904 260.871 327.06C280.663 316.3 290.621 303.88 290.252 290.537C290.068 285.004 290.743 284.204 295.415 283.774C298.365 283.528 299.349 283.836 304.513 286.295C307.708 287.771 311.212 289.247 312.318 289.492C313.486 289.738 317.605 289.615 321.6 289.184C331.374 288.2 332.848 288.631 337.397 293.796C340.347 297.178 341.146 297.793 342.867 297.793C347.355 297.793 352.333 291.398 352.395 285.618C352.395 279.101 349.321 276.272 333.032 267.726L328.115 265.144L318.895 269.509C297.443 279.778 284.043 284.512 289.945 279.839C292.095 278.056 295.599 276.15 315.761 265.697C332.541 257.028 343.052 251.556 350.858 247.374C364.811 239.934 395.545 224.563 395.852 224.871C396.16 225.179 397.696 224.379 404.764 220.26C406.732 219.091 411.465 216.447 415.275 214.296C423.758 209.561 430.151 204.827 432.609 201.322C434.146 199.108 434.453 198.125 434.453 194.989C434.453 191.607 434.269 191.115 432.732 190.009C431.564 189.086 430.765 188.902 430.212 189.271C423.697 194.19 415.829 197.571 391.119 206.118C332.664 226.408 311.335 236.86 279.249 261.147C248.27 284.573 227.678 310.828 218.581 338.374C217.782 340.894 216.921 343.169 216.676 343.354C216.429 343.599 215.324 343.661 214.279 343.477C212.065 343.107 212.065 343.722 213.787 336.221C216.614 323.986 224.789 304.433 230.997 295.087C233.579 291.214 239.603 284.881 242.246 283.344C244.52 281.991 244.889 280.884 242.861 281.56C238.62 282.913 231.489 289.308 227.186 295.64C220.548 305.478 212.864 324.97 209.73 339.911C209.299 341.94 208.746 343.907 208.439 344.338C207.578 345.444 201.432 344.83 197.99 343.354C196.33 342.677 195.039 341.94 195.039 341.693C195.039 340.771 201.432 318.022 204.013 309.598C211.205 286.418 218.519 272.584 227.125 265.758C230.751 262.931 233.579 262.623 237.575 264.652C240.893 266.374 243.659 266.005 250.913 262.807C263.513 257.396 271.688 251.309 286.011 236.738C306.418 215.955 316.129 210.545 339.057 207.348C354.67 205.195 359.34 204.089 366.163 200.707C373.847 196.956 377.413 196.096 391.734 194.497C409.928 192.529 423.144 190.07 428.368 187.734C431.872 186.196 433.532 183.491 433.532 179.249C433.532 176.236 433.347 175.805 430.888 173.407C425.295 167.874 406.363 162.094 382.268 158.467L374.892 157.421L366.594 149.059C340.778 123.112 310.967 107.495 275.929 101.592C266.341 99.9938 241.631 99.4404 231.919 100.67ZM229.153 139.836C232.227 140.082 237.759 140.636 241.446 140.943C248.27 141.619 253.802 142.788 252.326 143.28C251.896 143.464 248.392 143.28 244.52 142.849C240.648 142.48 235.362 142.357 232.473 142.603C226.633 143.034 223.375 142.173 222.084 139.713C221.408 138.484 221.47 138.422 222.454 138.791C223.13 139.037 226.141 139.529 229.153 139.836ZM365.426 160.065C371.696 160.373 379.871 161.11 383.559 161.602C391.918 162.77 401.077 164.492 400.708 164.8C400.524 164.984 397.143 164.677 393.147 164.123C377.227 162.033 371.388 161.725 352.763 162.094C332.726 162.463 324.735 163.262 306.418 166.829C296.952 168.612 296.275 168.673 294.8 167.751C293.633 166.951 293.447 166.583 294.002 165.906C294.923 164.738 295.538 164.615 303.836 163.201C322.153 160.065 344.158 158.958 365.426 160.065ZM403.228 165.353C403.043 165.537 402.49 165.599 402.061 165.414C401.569 165.23 401.753 165.045 402.429 165.045C403.106 164.984 403.474 165.168 403.228 165.353ZM320.863 175.191C320.678 175.375 320.124 175.436 319.695 175.252C319.203 175.068 319.387 174.883 320.063 174.883C320.739 174.822 321.108 175.006 320.863 175.191ZM309.675 177.896C284.843 184.167 254.17 196.219 230.751 208.885C226.572 211.159 223.068 212.881 222.884 212.759C222.638 212.451 232.411 206.056 240.709 201.076C255.646 191.976 277.528 183.553 297.382 179.064C315.392 175.068 324.181 174.207 309.675 177.896ZM234.316 190.746C235.668 191.607 234.686 193.083 231.182 195.296C229.4 196.465 225.159 199.17 221.778 201.322C216.306 204.765 208.685 210.299 203.337 214.664C200.325 217.123 190.306 226.961 186.188 231.635C184.037 234.032 181.517 236.799 180.594 237.844C179.673 238.828 180.287 237.906 181.885 235.693C183.545 233.479 185.143 231.388 185.511 231.019C185.819 230.59 187.11 229.114 188.278 227.638C191.289 223.826 203.153 212.02 208.254 207.655C214.401 202.429 221.531 197.141 227.617 193.452C233.334 189.886 233.087 190.009 234.316 190.746ZM351.473 224.624C351.289 224.932 350.613 225.24 350.06 225.24C349.137 225.24 349.137 225.116 349.936 224.624C351.165 223.826 351.965 223.826 351.473 224.624ZM348.707 225.855C348.707 226.162 348.215 226.469 347.661 226.469C346.74 226.469 346.679 226.347 347.477 225.855C348.645 225.116 348.707 225.116 348.707 225.855ZM341.515 275.288C346.985 278.732 348.523 280.454 349.076 283.651L349.445 285.803L348.215 283.836C346.801 281.683 343.667 279.409 337.336 275.965C332.726 273.445 329.529 270.862 330.021 270.063C330.451 269.324 336.106 271.908 341.515 275.288ZM255.585 287.34C254.97 288.016 254.354 288.447 254.17 288.324C253.863 287.955 255.461 286.171 256.138 286.11C256.445 286.11 256.199 286.663 255.585 287.34ZM138.182 313.103C138.366 313.41 138.244 313.84 137.875 314.087C137.567 314.271 137.26 314.024 137.26 313.532C137.26 312.426 137.629 312.242 138.182 313.103ZM253.433 314.087C253.433 314.947 253.186 315.624 252.818 315.624C252.142 315.624 251.957 313.595 252.634 312.979C253.31 312.303 253.433 312.487 253.433 314.087ZM290.928 313.471C290.928 313.963 291.235 314.394 291.542 314.394C291.911 314.394 292.157 314.701 292.157 315.071C292.157 315.562 291.85 315.5 291.235 315.008C290.682 314.579 290.068 314.394 289.882 314.64C289.637 314.885 289.821 315.316 290.313 315.624C290.805 315.992 290.989 316.238 290.621 316.238C290.313 316.238 289.637 315.992 289.206 315.685C288.469 315.255 288.469 314.947 289.145 313.84C290.129 312.303 290.928 312.181 290.928 313.471ZM117.591 315.992C117.591 316.484 117.345 316.73 116.976 316.546C116.669 316.361 116.361 315.931 116.361 315.562C116.361 315.255 116.669 315.008 116.976 315.008C117.345 315.008 117.591 315.439 117.591 315.992ZM249.131 315.869C249.131 316.054 248.884 316.361 248.516 316.546C248.208 316.73 247.9 316.608 247.9 316.3C247.9 315.931 248.208 315.624 248.516 315.624C248.884 315.624 249.131 315.746 249.131 315.869ZM284.412 316.546C284.167 317.038 283.736 317.284 283.428 317.099C283.06 316.853 283.122 316.484 283.614 316.177C284.781 315.439 284.781 315.5 284.412 316.546ZM133.879 316.853C134.064 317.222 133.633 317.468 132.834 317.468C131.728 317.468 131.605 317.345 132.343 316.853C133.511 316.116 133.449 316.116 133.879 316.853ZM373.785 317.284C373.171 317.406 372.188 317.406 371.635 317.284C371.02 317.099 371.511 316.976 372.679 316.976C373.847 316.976 374.338 317.099 373.785 317.284ZM118.82 317.714C118.82 317.898 118.574 318.206 118.205 318.39C117.898 318.575 117.591 318.451 117.591 318.145C117.591 317.775 117.898 317.468 118.205 317.468C118.574 317.468 118.82 317.591 118.82 317.714ZM282.322 318.943C282.322 319.128 282.076 319.435 281.707 319.62C281.401 319.804 281.093 319.682 281.093 319.374C281.093 319.006 281.401 318.698 281.707 318.698C282.076 318.698 282.322 318.821 282.322 318.943ZM432.732 329.273C432.548 329.765 432.364 329.581 432.364 328.904C432.303 328.228 432.487 327.859 432.671 328.105C432.856 328.289 432.917 328.843 432.732 329.273ZM136.215 330.134C147.771 333.024 162.892 343.599 171.313 354.605C174.632 358.848 175.616 360.692 174.018 359.463C173.587 359.094 172.666 358.663 172.05 358.418C171.067 358.11 171.006 358.171 171.682 358.971C172.174 359.524 172.174 359.893 171.805 359.893C171.435 359.893 170.945 359.585 170.759 359.279C170.575 358.909 169.1 358.663 167.625 358.663C164.428 358.663 164.183 358.418 159.45 351.531C156.745 347.657 149.37 340.217 148.202 340.217C147.279 340.217 147.71 341.324 148.693 341.693C149.246 341.94 149.554 342.246 149.307 342.493C149.123 342.677 148.447 342.431 147.894 341.94C146.542 340.771 143.406 339.972 143.406 340.771C143.406 341.079 143.776 341.509 144.206 341.632C144.636 341.816 144.636 342.001 144.268 342.001C143.222 342.062 141.132 339.972 141.379 339.111C141.563 338.742 141.379 338.374 141.071 338.374C140.703 338.374 140.027 338.189 139.473 338.004C138.92 337.819 138.489 337.943 138.489 338.311C138.489 338.68 138.797 338.927 139.227 338.803C139.596 338.742 140.088 339.172 140.211 339.787C140.395 340.709 140.211 340.771 138.797 340.217C137.875 339.848 136.891 339.726 136.584 339.911C136.338 340.095 135.416 339.848 134.556 339.295C133.572 338.619 132.957 338.496 132.65 338.927C132.158 339.787 128.655 339.787 128.655 338.988C128.655 338.619 128.347 338.374 127.979 338.374C127.671 338.374 127.548 338.742 127.794 339.111C128.163 339.726 128.04 339.726 127.364 339.111C126.38 338.25 123.983 338.127 123.43 338.988C122.877 339.848 120.541 339.726 120.787 338.864C120.971 338.435 121.709 337.943 122.569 337.758C123.922 337.39 123.86 337.327 122.016 337.021C120.91 336.898 119.865 336.959 119.68 337.266C119.127 338.189 117.406 337.819 117.775 336.836C118.082 336.16 117.836 336.098 116.607 336.529C114.64 337.327 113.103 337.327 113.595 336.59C113.964 335.975 110.952 336.651 109.477 337.513C106.588 339.111 111.936 335.114 115.439 333.024C122.877 328.536 127.425 327.92 136.215 330.134ZM388.353 329.52C392.533 330.565 401.753 335.729 401.2 336.651C400.954 337.021 400.585 337.021 400.154 336.59C399.417 335.852 397.635 335.668 398.126 336.406C398.249 336.651 397.696 337.205 396.836 337.574C395.607 338.189 395.36 338.127 395.607 337.513C395.975 336.59 390.935 336.651 389.767 337.574C388.845 338.311 381.223 338.988 381.592 338.311C381.776 338.127 380.178 338.004 378.027 338.189C375.937 338.311 373.54 338.435 372.679 338.435C371.819 338.435 370.467 338.374 369.606 338.374C368.376 338.374 368.683 338.066 371.143 336.836C375.261 334.745 372.125 335.606 367.147 337.882C361.8 340.34 356.267 344.338 352.949 348.21C347.109 355.097 344.65 357.618 342.191 359.34C340.409 360.569 339.486 360.877 339.302 360.324C339.118 359.77 338.749 359.77 337.765 360.324C337.028 360.754 336.413 360.816 336.291 360.508C336.168 360.139 335.307 360.631 334.385 361.492C331.558 364.135 331.988 362.906 335.615 358.048C347.724 341.94 367.331 329.95 383.743 328.597C384.296 328.597 386.386 328.966 388.353 329.52ZM367.762 338.619C367.762 338.742 367.331 339.172 366.839 339.603C366.041 340.279 365.979 340.217 366.286 339.356C366.594 338.496 367.762 337.943 367.762 338.619ZM134.801 340.217C134.801 340.525 134.678 340.832 134.556 340.832C134.371 340.832 134.064 340.525 133.879 340.217C133.695 339.848 133.818 339.603 134.125 339.603C134.494 339.603 134.801 339.848 134.801 340.217ZM200.571 350.794C200.571 351.592 199.158 351.1 198.85 350.178C198.727 349.748 198.973 349.563 199.588 349.81C200.141 349.994 200.571 350.486 200.571 350.794ZM202.416 352.515C202.416 352.823 202.292 353.129 202.169 353.129C201.985 353.129 201.677 352.823 201.493 352.515C201.309 352.146 201.432 351.9 201.739 351.9C202.108 351.9 202.416 352.146 202.416 352.515ZM167.809 359.647C167.625 359.832 167.072 359.893 166.641 359.708C166.149 359.524 166.334 359.34 167.01 359.34C167.686 359.279 168.056 359.463 167.809 359.647Z" fill="#00658D"/>
<path d="M135.908 335.728C136.339 335.913 136.892 335.852 137.076 335.667C137.322 335.483 136.953 335.298 136.277 335.36C135.601 335.36 135.416 335.544 135.908 335.728Z" fill="#00658D"/>
<path d="M142.854 338.004C143.469 338.557 147.095 340.218 147.095 339.971C147.095 339.603 143.714 337.758 143.038 337.758C142.792 337.758 142.73 337.881 142.854 338.004Z" fill="#00658D"/>
<path d="M381.162 334.498C381.592 334.683 382.145 334.622 382.33 334.436C382.576 334.252 382.207 334.067 381.531 334.129C380.855 334.129 380.67 334.314 381.162 334.498Z" fill="#00658D"/>
<path d="M375.63 335.113C376.06 335.297 376.613 335.236 376.798 335.052C377.043 334.868 376.674 334.683 375.998 334.744C375.322 334.744 375.138 334.929 375.63 335.113Z" fill="#00658D"/>
<path d="M381.162 336.957C381.9 337.08 383.007 337.08 383.621 336.957C384.173 336.773 383.56 336.649 382.207 336.712C380.855 336.712 380.363 336.834 381.162 336.957Z" fill="#00658D"/>
<path d="M374.4 337.573C374.83 337.758 375.384 337.695 375.569 337.511C375.814 337.327 375.445 337.142 374.769 337.203C374.093 337.203 373.909 337.389 374.4 337.573Z" fill="#00658D"/>
<path d="M400.093 226.654L396.528 228.56L396.897 231.696C400.462 262.254 397.45 285.926 386.57 312.795C385.341 315.808 384.481 318.452 384.665 318.636C385.341 319.251 393.271 321.096 393.639 320.665C394.377 319.804 399.049 306.585 400.831 300.252C402.921 292.874 404.15 287.34 405.687 278.117C407.224 268.833 407.224 241.902 405.687 232.31C405.072 228.622 404.396 225.363 404.15 225.117C403.904 224.871 402.122 225.548 400.093 226.654Z" fill="#00658D"/>
<path d="M343.79 228.252C343.79 228.56 343.298 228.99 342.745 229.113C341.884 229.358 341.823 229.421 342.622 229.482C343.114 229.482 344.097 229.113 344.773 228.621C345.819 227.821 345.819 227.76 344.896 227.699C344.282 227.699 343.79 227.945 343.79 228.252Z" fill="#00658D"/>
<path d="M339.979 230.588C340.409 230.772 340.962 230.711 341.147 230.527C341.393 230.342 341.023 230.158 340.347 230.219C339.671 230.219 339.487 230.403 339.979 230.588Z" fill="#00658D"/>
<path d="M332.726 233.662C330.206 234.891 327.686 236.06 327.194 236.367C325.841 237.106 319.879 240.18 316.929 241.717C313.733 243.377 312.688 244.053 311.458 245.345C310.72 246.082 309.921 246.513 309.737 246.266C309.491 246.082 309.123 246.144 308.876 246.513C308.631 246.821 307.463 247.619 306.234 248.173C305.004 248.726 303.651 249.587 303.222 250.14C302.791 250.632 302.115 251.063 301.746 251.063C300.762 251.063 297.628 253.891 298.12 254.383C298.734 254.936 299.657 254.814 299.288 254.198C299.104 253.891 299.349 253.461 299.902 253.277C300.394 253.092 300.64 253.153 300.456 253.522C300.272 253.891 300.394 254.137 300.762 254.137C301.132 254.137 301.562 253.706 301.746 253.214C301.993 252.722 302.484 252.293 302.975 252.293C303.406 252.293 304.082 251.739 304.451 251.063C304.819 250.387 305.495 249.833 305.987 249.833C306.479 249.833 306.91 249.526 306.91 249.156C306.91 248.85 307.155 248.665 307.463 248.85C307.77 249.095 308.876 248.542 309.86 247.681C310.844 246.821 312.012 246.144 312.38 246.144C312.749 246.144 313.056 245.837 313.056 245.529C313.056 245.16 313.302 244.914 313.609 244.914C313.978 244.914 315.822 243.992 317.79 242.823C323.505 239.504 327.133 237.536 333.279 234.338C339.918 230.895 339.549 230.342 332.726 233.662Z" fill="#00658D"/>
<path d="M296.891 255.428C297.32 255.858 297.812 256.043 297.997 255.858C298.181 255.674 297.873 255.305 297.259 255.121C296.399 254.752 296.337 254.813 296.891 255.428Z" fill="#00658D"/>
<path d="M293.079 257.826C293.263 258.134 293.755 258.441 294.063 258.441C294.431 258.441 294.493 258.134 294.308 257.826C294.124 257.457 293.633 257.211 293.325 257.211C292.957 257.211 292.895 257.457 293.079 257.826Z" fill="#00658D"/>
<path d="M290.313 258.687C290.313 258.809 290.743 259.24 291.235 259.67C292.034 260.346 292.096 260.285 291.789 259.424C291.482 258.564 290.313 258.01 290.313 258.687Z" fill="#00658D"/>
<path d="M288.469 260.346C288.469 260.654 288.777 260.777 289.084 260.593C289.453 260.408 289.698 260.101 289.698 259.916C289.698 259.793 289.453 259.67 289.084 259.67C288.777 259.67 288.469 259.978 288.469 260.346Z" fill="#00658D"/>
<path d="M287.855 262.437C287.424 262.929 287.363 263.359 287.732 263.359C288.039 263.359 288.653 262.929 289.084 262.437C289.514 261.945 289.576 261.516 289.206 261.516C288.9 261.516 288.285 261.945 287.855 262.437Z" fill="#00658D"/>
<path d="M285.396 264.651C285.396 264.959 285.704 265.081 286.011 264.896C286.38 264.712 286.625 264.404 286.625 264.22C286.625 264.098 286.38 263.975 286.011 263.975C285.704 263.975 285.396 264.282 285.396 264.651Z" fill="#00658D"/>
<path d="M282.752 264.959C282.568 265.144 282.568 265.697 282.752 266.189C282.999 266.865 283.307 266.926 283.921 266.373C284.412 266.004 284.597 265.451 284.412 265.144C284.044 264.528 283.307 264.405 282.752 264.959Z" fill="#00658D"/>
<path d="M281.094 267.05C281.708 267.418 281.77 267.665 281.278 267.665C280.847 267.665 280.479 267.973 280.479 268.341C280.479 268.833 280.786 268.833 281.401 268.28C282.384 267.481 282.077 266.436 280.909 266.436C280.479 266.436 280.54 266.681 281.094 267.05Z" fill="#00658D"/>
<path d="M269.046 276.396C269.23 277.195 269.23 277.441 269.046 277.011C268.554 275.904 267.325 276.088 266.341 277.503C265.849 278.179 265.112 278.732 264.681 278.732C264.313 278.732 263.821 279.224 263.637 279.84C263.391 280.516 262.531 281.377 261.731 281.807C260.195 282.667 259.703 283.651 260.809 283.651C261.179 283.651 261.424 283.344 261.424 283.036C261.424 282.175 263.084 282.299 263.513 283.159C263.698 283.59 263.698 283.344 263.576 282.667C263.206 281.254 264.681 280.208 265.911 281.007C266.341 281.254 266.402 281.007 266.157 280.331C265.849 279.532 265.973 279.348 266.833 279.593C267.509 279.84 268.554 279.348 269.599 278.425C271.259 276.827 271.812 275.843 270.644 276.58C270.336 276.764 270.03 276.519 270.03 276.027C270.03 275.474 269.722 275.043 269.354 275.043C268.984 275.043 268.862 275.658 269.046 276.396Z" fill="#00658D"/>
<path d="M258.535 284.511C257.982 285.187 258.043 285.617 258.719 286.479C259.58 287.585 259.642 287.585 259.272 286.294C258.966 285.126 259.088 284.941 259.948 285.311C260.625 285.556 260.871 285.433 260.687 284.88C260.317 283.711 259.395 283.527 258.535 284.511Z" fill="#00658D"/>
<path d="M288.162 310.089C287.977 310.396 288.101 310.704 288.408 310.704C288.777 310.704 289.084 310.396 289.084 310.089C289.084 309.72 288.961 309.475 288.838 309.475C288.654 309.475 288.346 309.72 288.162 310.089Z" fill="#00658D"/>
<path d="M385.096 311.933C385.096 312.793 385.219 313.101 385.403 312.671C385.525 312.302 385.525 311.564 385.403 311.134C385.219 310.765 385.096 311.072 385.096 311.933Z" fill="#00658D"/>
<path d="M249.131 311.934C248.639 312.241 248.392 312.671 248.577 312.855C248.823 313.04 249.315 312.794 249.745 312.241C250.605 311.195 250.421 311.073 249.131 311.934Z" fill="#00658D"/>
<path d="M111.751 329.149C110.583 329.641 110.583 329.702 111.874 329.702C112.612 329.764 113.411 329.456 113.595 329.149C114.026 328.411 113.472 328.411 111.751 329.149Z" fill="#00658D"/>
<path d="M196.576 346.981C196.76 347.288 197.068 347.596 197.252 347.596C197.375 347.596 197.498 347.288 197.498 346.981C197.498 346.612 197.191 346.365 196.822 346.365C196.515 346.365 196.391 346.612 196.576 346.981Z" fill="#00658D"/>
<path d="M322.584 351.899C322.399 352.207 322.523 352.515 322.829 352.515C323.198 352.515 323.505 352.207 323.505 351.899C323.505 351.531 323.383 351.285 323.26 351.285C323.075 351.285 322.768 351.531 322.584 351.899Z" fill="#00658D"/>
</svg>
